<svg width="20" height="16" viewBox="0 0 20 16" fill="none" xmlns="http://www.w3.org/2000/svg">
<g clip-path="url(#clip0)">
<path d="M19.9804 4.68446C19.9336 3.85793 19.7617 3.2897 19.5156 2.79733C19.2616 2.27468 18.8709 1.80675 18.359 1.41776C17.8589 1.02272 17.2533 0.715755 16.5891 0.52132C15.9524 0.329853 15.2256 0.196194 14.163 0.159752C13.0924 0.120224 12.7525 0.111084 10.0371 0.111084C7.32173 0.111084 6.98185 0.120224 5.91521 0.156666C4.85253 0.193108 4.12195 0.326885 3.48904 0.518234C2.81692 0.715755 2.2153 1.01963 1.71517 1.41776C1.20726 1.80675 0.812743 2.27776 0.562603 2.79436C0.31643 3.2897 0.144583 3.85485 0.0977294 4.68137C0.0469078 5.51407 0.0351562 5.77842 0.0351562 7.89038C0.0351562 10.0023 0.0469078 10.2667 0.0937614 11.0963C0.140615 11.9228 0.312615 12.4911 0.558787 12.9834C0.812743 13.5061 1.20726 13.974 1.71517 14.363C2.2153 14.758 2.82088 15.065 3.48508 15.2594C4.12195 15.4509 4.84856 15.5846 5.91139 15.621C6.97788 15.6576 7.31791 15.6666 10.0333 15.6666C12.7487 15.6666 13.0885 15.6576 14.1552 15.621C15.2179 15.5846 15.9484 15.4509 16.5813 15.2594C17.9254 14.8553 18.9881 14.0287 19.5078 12.9834C19.7538 12.4881 19.9258 11.9228 19.9727 11.0963C20.0195 10.2667 20.0313 10.0023 20.0313 7.89038C20.0313 5.77842 20.0273 5.51407 19.9804 4.68446ZM18.1794 11.0355C18.1364 11.7952 17.9723 12.2055 17.8356 12.479C17.4995 13.1566 16.808 13.6945 15.9367 13.9558C15.5851 14.0622 15.0538 14.1898 14.0809 14.2232C13.026 14.2597 12.7096 14.2688 10.0411 14.2688C7.37255 14.2688 7.05221 14.2597 6.00113 14.2232C5.02438 14.1898 4.49693 14.0622 4.1453 13.9558C3.71171 13.8312 3.31704 13.6337 2.9967 13.3754C2.6646 13.1232 2.41065 12.8193 2.2504 12.482C2.11365 12.2085 1.94959 11.7952 1.90671 11.0386C1.8597 10.2181 1.8481 9.97195 1.8481 7.89644C1.8481 5.82092 1.8597 5.57176 1.90671 4.75438C1.94959 3.99468 2.11365 3.58444 2.2504 3.31095C2.41065 2.9736 2.6646 2.66675 3.00067 2.41748C3.32483 2.15918 3.71553 1.96166 4.14927 1.83714C4.5009 1.73078 5.03231 1.60318 6.0051 1.5697C7.05999 1.53326 7.37652 1.52412 10.0449 1.52412C12.7174 1.52412 13.0337 1.53326 14.0848 1.5697C15.0616 1.60318 15.589 1.73078 15.9407 1.83714C16.3742 1.96166 16.7689 2.15918 17.0893 2.41748C17.4213 2.66972 17.6753 2.9736 17.8356 3.31095C17.9723 3.58444 18.1364 3.99765 18.1794 4.75438C18.2263 5.57485 18.238 5.82092 18.238 7.89644C18.238 9.97195 18.2263 10.2151 18.1794 11.0355Z" fill="white"/>
<path d="M10.0371 3.89429C7.20074 3.89429 4.89941 5.68409 4.89941 7.89029C4.89941 10.0965 7.20074 11.8863 10.0371 11.8863C12.8737 11.8863 15.1749 10.0965 15.1749 7.89029C15.1749 5.68409 12.8737 3.89429 10.0371 3.89429ZM10.0371 10.4824C8.19702 10.4824 6.70442 9.32161 6.70442 7.89029C6.70442 6.45898 8.19702 5.29818 10.0371 5.29818C11.8774 5.29818 13.3698 6.45898 13.3698 7.89029C13.3698 9.32161 11.8774 10.4824 10.0371 10.4824Z" fill="white"/>
<path d="M16.5775 3.73635C16.5775 4.25152 16.0404 4.66924 15.3779 4.66924C14.7155 4.66924 14.1785 4.25152 14.1785 3.73635C14.1785 3.22106 14.7155 2.80347 15.3779 2.80347C16.0404 2.80347 16.5775 3.22106 16.5775 3.73635Z" fill="white"/>
</g>
<defs>
<clipPath id="clip0">
<rect width="20" height="15.5556" fill="white" transform="translate(0 0.111084)"/>
</clipPath>
</defs>
</svg>
