<svg width="20" height="16" viewBox="0 0 20 16" fill="none" xmlns="http://www.w3.org/2000/svg">
<g clip-path="url(#clip0)">
<path d="M19.9951 15.6667V15.6661H20.0001V9.9611C20.0001 7.17017 19.2276 5.02026 15.0326 5.02026C13.0159 5.02026 11.6626 5.881 11.1101 6.69702H11.0517V5.28082H7.07422V15.6661H11.2159V10.5237C11.2159 9.16971 11.5459 7.86045 13.7017 7.86045C15.8259 7.86045 15.8576 9.40563 15.8576 10.6105V15.6667H19.9951Z" fill="white"/>
<path d="M0.330078 5.28125H4.47675V15.6665H0.330078V5.28125Z" fill="white"/>
<path d="M2.40167 0.111084C1.07583 0.111084 0 0.947843 0 1.97905C0 3.01025 1.07583 3.86451 2.40167 3.86451C3.7275 3.86451 4.80333 3.01025 4.80333 1.97905C4.8025 0.947843 3.72667 0.111084 2.40167 0.111084V0.111084Z" fill="white"/>
</g>
<defs>
<clipPath id="clip0">
<rect width="20" height="15.5556" fill="white" transform="translate(0 0.111084)"/>
</clipPath>
</defs>
</svg>
